<svg xmlns="http://www.w3.org/2000/svg" width="100%" height="100%" viewBox="0 0 1440 900">
  <defs><linearGradient id="bg" x2="1" y2="1"><stop stop-color="#fff5e8"/><stop offset="1" stop-color="#f8faff"/></linearGradient><filter id="s"><feDropShadow dy="18" stdDeviation="24" flood-color="#704619" flood-opacity=".16"/></filter></defs>
  <rect width="1440" height="900" fill="url(#bg)"/>
  <text x="720" y="78" text-anchor="middle" font-family="-apple-system,sans-serif" font-size="42" font-weight="700" fill="#43280f">Take control of hidden login helpers.</text>
  <text x="720" y="118" text-anchor="middle" font-family="-apple-system,sans-serif" font-size="20" fill="#816647">See the background items bundled inside your applications.</text>
  <g filter="url(#s)">
    <rect x="100" y="160" width="1240" height="670" rx="22" fill="#f7f7f9" stroke="#ddd9d2"/>
    <path d="M122 160h1196a22 22 0 0 1 22 22v48H100v-48a22 22 0 0 1 22-22z" fill="#ececf0"/>
    <circle cx="135" cy="195" r="8" fill="#ff5f57"/><circle cx="162" cy="195" r="8" fill="#febc2e"/><circle cx="189" cy="195" r="8" fill="#28c840"/>
    <rect x="112" y="244" width="1216" height="66" fill="#f4f4f6"/>
    <g data-app-icon x="132" y="259" size="28"/><text x="170" y="279" font-family="-apple-system,sans-serif" font-size="17" font-weight="650" fill="#202124">Launchpane</text><text x="170" y="298" font-family="-apple-system,sans-serif" font-size="12" fill="#7a7d88">3 of 42 services</text>
    <rect x="132" y="326" width="500" height="38" rx="9" fill="white" stroke="#d8d9df"/><text x="151" y="350" font-family="-apple-system,sans-serif" font-size="12" fill="#898c96">Search by label (/)</text>
    <rect x="646" y="326" width="176" height="38" rx="9" fill="white" stroke="#d8d9df"/><text x="665" y="350" font-family="-apple-system,sans-serif" font-size="12" font-weight="600" fill="#35363c">Login items</text><text x="796" y="350" font-family="-apple-system,sans-serif" font-size="12" fill="#777983">⌄</text>
    <g font-family="-apple-system,sans-serif" font-size="10.5" fill="#686b77"><text x="208" y="390"><tspan font-weight="650" fill="#2d2e35">Enabled</tspan> may start at login.</text><text x="540" y="390"><tspan font-weight="650" fill="#2d2e35">Loaded</tspan> is registered with macOS.</text><text x="875" y="390"><tspan font-weight="650" fill="#2d2e35">Running</tspan> has an active process now.</text></g>
    <rect x="112" y="404" width="1216" height="38" fill="#ededf0"/>
    <g font-family="-apple-system,sans-serif" font-size="11" font-weight="650" fill="#777983"><text x="208" y="428">LABEL ↕</text><text x="690" y="428">SOURCE ↕</text><text x="875" y="428">STATUS ↕</text><text x="1040" y="428">ENABLED ↕</text><text x="1220" y="428">ACTIONS</text></g>
    <g font-family="-apple-system,sans-serif">
      <rect x="112" y="442" width="1216" height="84" fill="white"/><rect x="137" y="458" width="52" height="52" rx="12" fill="#1f9d69"/><text x="163" y="493" text-anchor="middle" font-size="26" font-weight="700" fill="white">S</text>
      <text x="208" y="475" font-size="14" font-weight="650" fill="#25262a">com.spotify.client.StartupHelper</text><text x="208" y="498" font-size="12" fill="#82848e">Spotify.app · Login Item</text><rect x="668" y="470" width="94" height="26" rx="13" fill="#eff1f7"/><text x="715" y="487" text-anchor="middle" font-size="11" font-weight="600" fill="#565968">Login Item</text><rect x="851" y="470" width="76" height="26" rx="13" fill="#dff8ef"/><text x="889" y="487" text-anchor="middle" font-size="11" font-weight="600" fill="#186b52">Loaded</text><rect x="1011" y="470" width="76" height="26" rx="13" fill="#dff8ef"/><text x="1049" y="487" text-anchor="middle" font-size="11" font-weight="600" fill="#186b52">Enabled</text><text x="1248" y="489" font-size="23" fill="#777">•••</text>
      <line x1="112" y1="526" x2="1328" y2="526" stroke="#e2e3e8"/><rect x="137" y="542" width="52" height="52" rx="12" fill="#f06642"/><text x="163" y="577" text-anchor="middle" font-size="27" font-weight="700" fill="white">V</text>
      <text x="208" y="559" font-size="14" font-weight="650" fill="#25262a">com.coppertino.VOXAgent</text><text x="208" y="582" font-size="12" fill="#82848e">VOX.app · Login Item</text><rect x="668" y="554" width="94" height="26" rx="13" fill="#eff1f7"/><text x="715" y="571" text-anchor="middle" font-size="11" font-weight="600" fill="#565968">Login Item</text><rect x="851" y="554" width="76" height="26" rx="13" fill="#dff8ef"/><text x="889" y="571" text-anchor="middle" font-size="11" font-weight="600" fill="#186b52">Loaded</text><rect x="1011" y="554" width="76" height="26" rx="13" fill="#dff8ef"/><text x="1049" y="571" text-anchor="middle" font-size="11" font-weight="600" fill="#186b52">Enabled</text><text x="1248" y="573" font-size="23" fill="#777">•••</text>
      <line x1="112" y1="610" x2="1328" y2="610" stroke="#e2e3e8"/><rect x="137" y="626" width="52" height="52" rx="12" fill="#2f73d9"/><text x="163" y="661" text-anchor="middle" font-size="25" font-weight="700" fill="white">D</text>
      <text x="208" y="643" font-size="14" font-weight="650" fill="#25262a">com.dropbox.DropboxMacUpdate.agent</text><text x="208" y="666" font-size="12" fill="#82848e">Dropbox.app · Login Item</text><rect x="668" y="638" width="94" height="26" rx="13" fill="#eff1f7"/><text x="715" y="655" text-anchor="middle" font-size="11" font-weight="600" fill="#565968">Login Item</text><rect x="847" y="638" width="84" height="26" rx="13" fill="#f0f0f2"/><text x="889" y="655" text-anchor="middle" font-size="11" font-weight="600" fill="#666872">Unloaded</text><rect x="1007" y="638" width="84" height="26" rx="13" fill="#f0f0f2"/><text x="1049" y="655" text-anchor="middle" font-size="11" font-weight="600" fill="#666872">Disabled</text><text x="1248" y="657" font-size="23" fill="#777">•••</text>
    </g>
    <rect x="132" y="720" width="1176" height="60" rx="12" fill="#fff6e8" stroke="#f1d5ad"/><text x="158" y="746" font-family="-apple-system,sans-serif" font-size="13" font-weight="650" fill="#8a581c">Login items stay inside their parent applications.</text><text x="158" y="766" font-family="-apple-system,sans-serif" font-size="12" fill="#9c764a">Launchpane enables or disables them without modifying the app bundle.</text>
  </g>
</svg>
