<svg xmlns="http://www.w3.org/2000/svg" width="100%" height="100%" viewBox="0 0 1440 900">
  <defs>
    <linearGradient id="bg" x1="0" y1="0" x2="1" y2="1"><stop stop-color="#eef3ff"/><stop offset="1" stop-color="#fafbff"/></linearGradient>
    <filter id="shadow"><feDropShadow dx="0" dy="18" stdDeviation="24" flood-color="#263c75" flood-opacity=".18"/></filter>
  </defs>
  <rect width="1440" height="900" fill="url(#bg)"/>
  <text x="720" y="78" text-anchor="middle" font-family="-apple-system,BlinkMacSystemFont,sans-serif" font-size="42" font-weight="700" fill="#17244a">Every launch service. One clear view.</text>
  <text x="720" y="118" text-anchor="middle" font-family="-apple-system,BlinkMacSystemFont,sans-serif" font-size="20" fill="#637092">Search, filter, inspect, and act with confidence.</text>
  <g filter="url(#shadow)">
    <rect x="100" y="160" width="1240" height="670" rx="22" fill="#f7f7f9" stroke="#d8dbe5"/>
    <path d="M122 160h1196a22 22 0 0 1 22 22v48H100v-48a22 22 0 0 1 22-22z" fill="#ececf0"/>
    <circle cx="135" cy="195" r="8" fill="#ff5f57"/><circle cx="162" cy="195" r="8" fill="#febc2e"/><circle cx="189" cy="195" r="8" fill="#28c840"/>
    <rect x="112" y="244" width="1216" height="66" fill="#f4f4f6"/>
    
    <g data-app-icon x="132" y="259" size="28"/>
    <text x="170" y="279" font-family="-apple-system,BlinkMacSystemFont,sans-serif" font-size="17" font-weight="650" fill="#202124">Launchpane</text>
    <text x="170" y="298" font-family="-apple-system,BlinkMacSystemFont,sans-serif" font-size="12" fill="#7a7d88">42 services</text>
    <rect x="1124" y="260" width="104" height="36" rx="9" fill="white" stroke="#d8d9df"/><text x="1176" y="283" text-anchor="middle" font-family="-apple-system,sans-serif" font-size="13" font-weight="600" fill="#35363c">Refresh</text>
    <rect x="1238" y="260" width="76" height="36" rx="9" fill="#3d5be0"/><text x="1276" y="283" text-anchor="middle" font-family="-apple-system,sans-serif" font-size="13" font-weight="600" fill="white">New Agent</text>
    <rect x="132" y="326" width="800" height="38" rx="9" fill="#f2f3f8" stroke="#d8d9df"/>
    <rect x="144" y="332" width="480" height="26" rx="7" fill="white" stroke="#d8d9df"/>
    <text x="162" y="350" font-family="-apple-system,BlinkMacSystemFont,sans-serif" font-size="12" fill="#898c96">Search by label (/)</text>
    <rect x="638" y="332" width="178" height="26" rx="7" fill="white" stroke="#d8d9df"/>
    <text x="654" y="350" font-family="-apple-system,BlinkMacSystemFont,sans-serif" font-size="12" font-weight="600" fill="#454750">All services</text>
    <text x="796" y="350" text-anchor="middle" font-family="-apple-system,sans-serif" font-size="12" fill="#777983">⌄</text>
    <g font-family="-apple-system,sans-serif" font-size="10.5" fill="#686b77">
      <text x="150" y="390"><tspan font-weight="650" fill="#2d2e35">Enabled</tspan> may load at login or on schedule.</text>
      <text x="515" y="390"><tspan font-weight="650" fill="#2d2e35">Loaded</tspan> is registered with launchd.</text>
      <text x="835" y="390"><tspan font-weight="650" fill="#2d2e35">Running</tspan> has an active process now.</text>
    </g>
    <rect x="112" y="404" width="1216" height="38" fill="#ededf0"/>
    <g font-family="-apple-system,sans-serif" font-size="11" font-weight="650" fill="#777983"><text x="145" y="428">LABEL ↕</text><text x="650" y="428">SOURCE ↕</text><text x="815" y="428">STATUS ↕</text><text x="970" y="428">ENABLED ↕</text><text x="1160" y="428">ACTIONS</text></g>
    <g font-family="-apple-system,BlinkMacSystemFont,sans-serif">
      <rect x="112" y="442" width="1216" height="78" fill="white"/>
      <text x="145" y="477" font-size="14" font-weight="600" fill="#25262a">com.example.backup</text><text x="145" y="498" font-size="12" fill="#83858e">~/Library/LaunchAgents/com.example.backup.plist</text>
      <rect x="641" y="466" width="74" height="26" rx="13" fill="#eff1f7"/><text x="678" y="483" text-anchor="middle" font-size="11" font-weight="600" fill="#4d5060">User</text>
      <rect x="798" y="466" width="76" height="26" rx="13" fill="#dff8ef"/><circle cx="812" cy="479" r="3" fill="#2bd39c"/><text x="841" y="483" text-anchor="middle" font-size="11" font-weight="600" fill="#186b52">Running</text>
      <rect x="956" y="466" width="76" height="26" rx="13" fill="#dff8ef"/><text x="994" y="483" text-anchor="middle" font-size="11" font-weight="600" fill="#186b52">Enabled</text><rect x="1101" y="463" width="70" height="32" rx="8" fill="white" stroke="#cfd1d8"/><text x="1136" y="484" text-anchor="middle" font-size="12" font-weight="600" fill="#34363e">Stop</text><text x="1248" y="485" font-size="23" fill="#777">•••</text>
      <line x1="112" y1="520" x2="1328" y2="520" stroke="#e2e3e8"/>
      <text x="145" y="555" font-size="14" font-weight="600" fill="#25262a">com.apple.photolibraryd</text><text x="145" y="576" font-size="12" fill="#83858e">/System/Library/LaunchAgents/com.apple.photolibraryd.plist</text>
      <rect x="641" y="544" width="82" height="26" rx="13" fill="#f0f0f2"/><text x="682" y="561" text-anchor="middle" font-size="11" font-weight="600" fill="#666872">System</text>
      <rect x="798" y="544" width="76" height="26" rx="13" fill="#dff8ef"/><circle cx="812" cy="557" r="3" fill="#2bd39c"/><text x="841" y="561" text-anchor="middle" font-size="11" font-weight="600" fill="#186b52">Running</text>
      <rect x="956" y="544" width="76" height="26" rx="13" fill="#dff8ef"/><text x="994" y="561" text-anchor="middle" font-size="11" font-weight="600" fill="#186b52">Enabled</text><text x="1248" y="563" font-size="23" fill="#777">•••</text>
      <line x1="112" y1="598" x2="1328" y2="598" stroke="#e2e3e8"/>
      <text x="145" y="633" font-size="14" font-weight="600" fill="#25262a">com.spotify.client.StartupHelper</text><text x="145" y="654" font-size="12" fill="#83858e">Spotify.app · Login Item</text>
      <rect x="641" y="622" width="96" height="26" rx="13" fill="#eff1f7"/><text x="689" y="639" text-anchor="middle" font-size="11" font-weight="600" fill="#565968">Login Item</text>
      <rect x="798" y="622" width="80" height="26" rx="13" fill="#f0f0f2"/><text x="838" y="639" text-anchor="middle" font-size="11" font-weight="600" fill="#666872">Unloaded</text>
      <rect x="952" y="622" width="84" height="26" rx="13" fill="#f0f0f2"/><text x="994" y="639" text-anchor="middle" font-size="11" font-weight="600" fill="#666872">Disabled</text><text x="1248" y="641" font-size="23" fill="#777">•••</text>
    </g>
  </g>
</svg>
